<svg xmlns="http://www.w3.org/2000/svg" class="css-8aabad" viewBox="0 0 65 60">
  <defs>
    <linearGradient id="a">
      <stop offset="0" stop-color="#6d7cff" />
      <stop offset="1" stop-color="#ff51ff" />
    </linearGradient>
  </defs>
  <g>
    <g fill="#fff" style="height:90px">
      <path xmlns="http://www.w3.org/2000/svg"
        d="M539 0c91 0 175 29 243 78 100-39 170-51 212-42 47 10 68 39 64 82-2 28-18 63-47 101-78 102-263 247-525 377 166-22 322-77 467-171-6 223-189 402-414 402-111 0-212-44-286-116-88 33-150 42-188 34-47-10-68-39-65-82 2-29 19-63 48-102 78-101 262-247 525-377-156 21-303 71-440 155C168 146 337 0 539 0zM197 645c-17-25-31-52-43-81-16 17-30 33-41 47-17 23-28 41-30 54 21 4 59-2 114-20zm653-505c20 24 38 49 53 77 17-17 31-33 43-48 17-23 28-41 30-53-23-5-64 2-126 24z"
        class="fil0" style="fill:url(#a);height:108px" transform="matrix(.06122 0 0 .06122 .017 5)" />
    </g>
  </g>
</svg>